#Comment line ignore any data following # character 
#Hierarchical Translation and Rotation (.htr) file 
[Header]	
#Header keywords are followed by a single value 
FileType HTR		#Single word string
DataType HTRS		#Translation followed by rotation and scale data
FileVersion 1		#integer
NumSegments 64		#integer
NumFrames 3		#integer
DataFrameRate 30		#integer, data frame rate in this file
EulerRotationOrder ZYX
CalibrationUnits mm
RotationUnits Degrees
GlobalAxisofGravity Y
BoneLengthAxis Y
ScaleFactor 1.00
[SegmentNames&Hierarchy]
#CHILD	PARENT
Pinger_Root GLOBAL
Pelvis Pinger_Root
L_Hip Pelvis
R_Hip Pelvis
Rear_Leg01 Pelvis
Spine1 Pelvis
L_Leg01 L_Hip
L_Leg02 L_Leg01
L_Leg03 L_Leg02
L_Foot L_Leg03
L_Toe1_01 L_Foot
L_Toe2_01 L_Foot
L_Toe3_01 L_Foot
planeAlignerLeft L_Foot
L_Toe1_02 L_Toe1_01
L_Toe1_03 L_Toe1_02
L_Toe2_02 L_Toe2_01
L_Toe2_03 L_Toe2_02
L_Toe3_02 L_Toe3_01
L_Toe3_03 L_Toe3_02
planeLockWeightLeft planeAlignerLeft
R_Leg01 R_Hip
R_Leg02 R_Leg01
R_Leg03 R_Leg02
R_Foot R_Leg03
planeAlignerRight R_Foot
R_Toe1_01 R_Foot
R_Toe2_01 R_Foot
R_Toe3_01 R_Foot
planeLockWeightRight planeAlignerRight
R_Toe1_02 R_Toe1_01
R_Toe1_03 R_Toe1_02
R_Toe2_02 R_Toe2_01
R_Toe2_03 R_Toe2_02
R_Toe3_02 R_Toe3_01
R_Toe3_03 R_Toe3_02
Rear_Leg02 Rear_Leg01
Rear_Leg03 Rear_Leg02
Rear_Leg04 Rear_Leg03
Rear_Foot Rear_Leg04
planeAlignerCenter Rear_Foot
Rear_Toe1_01 Rear_Foot
Rear_Toe2_01 Rear_Foot
Rear_Toe3_01 Rear_Foot
planeLockWeightCenter planeAlignerCenter
Rear_Toe1_02 Rear_Toe1_01
Rear_Toe1_03 Rear_Toe1_02
Rear_Toe2_02 Rear_Toe2_01
Rear_Toe2_03 Rear_Toe2_02
Rear_Toe3_02 Rear_Toe3_01
Rear_Toe3_03 Rear_Toe3_02
Back_Bone Spine1
Head Spine1
Motor_Bone Back_Bone
Ping_Mechanism Back_Bone
BN_LookIK Head
bottomMouth Head
L_Mouth01 Head
L_mouthFront Head
mouthGun Head
R_Mouth01 Head
R_mouthFront Head
TopMouth Head
weapon_bone Head
[BasePosition]
#SegmentName Tx, Ty, Tz, Rx, Ry, Rz, BoneLength
Pinger_Root 0.000000 0.000000 0.000000 -90.000000 0.000000 0.000000 10.000000 
Pelvis 0.000000 0.000000 0.000000 0.000000 0.000000 0.000000 10.000000 
L_Hip 0.000000 0.000000 0.000000 0.000000 0.000000 0.000000 10.000000 
R_Hip 0.000000 0.000000 0.000000 0.000000 0.000000 0.000000 10.000000 
Rear_Leg01 0.000000 0.000000 0.000000 0.000000 0.000000 0.000000 10.000000 
Spine1 0.000000 0.000000 0.000000 0.000000 0.000000 0.000000 10.000000 
L_Leg01 0.000000 0.000000 0.000000 0.000000 0.000000 0.000000 10.000000 
L_Leg02 0.000000 0.000000 0.000000 0.000000 0.000000 0.000000 10.000000 
L_Leg03 0.000000 0.000000 0.000000 0.000000 0.000000 0.000000 10.000000 
L_Foot 0.000000 0.000000 0.000000 0.000000 0.000000 0.000000 10.000000 
L_Toe1_01 0.000000 0.000000 0.000000 0.000000 0.000000 0.000000 10.000000 
L_Toe2_01 0.000000 0.000000 0.000000 0.000000 0.000000 0.000000 10.000000 
L_Toe3_01 0.000000 0.000000 0.000000 0.000000 0.000000 0.000000 10.000000 
planeAlignerLeft 0.000000 0.000000 0.000000 0.000000 0.000000 0.000000 10.000000 
L_Toe1_02 0.000000 0.000000 0.000000 0.000000 0.000000 0.000000 10.000000 
L_Toe1_03 0.000000 0.000000 0.000000 0.000000 0.000000 0.000000 10.000000 
L_Toe2_02 0.000000 0.000000 0.000000 0.000000 0.000000 0.000000 10.000000 
L_Toe2_03 0.000000 0.000000 0.000000 0.000000 0.000000 0.000000 10.000000 
L_Toe3_02 0.000000 0.000000 0.000000 0.000000 0.000000 0.000000 10.000000 
L_Toe3_03 0.000000 0.000000 0.000000 0.000000 0.000000 0.000000 10.000000 
planeLockWeightLeft 0.000000 0.000000 0.000000 0.000000 0.000000 0.000000 10.000000 
R_Leg01 0.000000 0.000000 0.000000 0.000000 0.000000 0.000000 10.000000 
R_Leg02 0.000000 0.000000 0.000000 0.000000 0.000000 0.000000 10.000000 
R_Leg03 0.000000 0.000000 0.000000 0.000000 0.000000 0.000000 10.000000 
R_Foot 0.000000 0.000000 0.000000 0.000000 0.000000 0.000000 10.000000 
planeAlignerRight 0.000000 0.000000 0.000000 0.000000 0.000000 0.000000 10.000000 
R_Toe1_01 0.000000 0.000000 0.000000 0.000000 0.000000 0.000000 10.000000 
R_Toe2_01 0.000000 0.000000 0.000000 0.000000 0.000000 0.000000 10.000000 
R_Toe3_01 0.000000 0.000000 0.000000 0.000000 0.000000 0.000000 10.000000 
planeLockWeightRight 0.000000 0.000000 0.000000 0.000000 0.000000 0.000000 10.000000 
R_Toe1_02 0.000000 0.000000 0.000000 0.000000 0.000000 0.000000 10.000000 
R_Toe1_03 0.000000 0.000000 0.000000 0.000000 0.000000 0.000000 10.000000 
R_Toe2_02 0.000000 0.000000 0.000000 0.000000 0.000000 0.000000 10.000000 
R_Toe2_03 0.000000 0.000000 0.000000 0.000000 0.000000 0.000000 10.000000 
R_Toe3_02 0.000000 0.000000 0.000000 0.000000 0.000000 0.000000 10.000000 
R_Toe3_03 0.000000 0.000000 0.000000 0.000000 0.000000 0.000000 10.000000 
Rear_Leg02 0.000000 0.000000 0.000000 0.000000 0.000000 0.000000 10.000000 
Rear_Leg03 0.000000 0.000000 0.000000 0.000000 0.000000 0.000000 10.000000 
Rear_Leg04 0.000000 0.000000 0.000000 0.000000 0.000000 0.000000 10.000000 
Rear_Foot 0.000000 0.000000 0.000000 0.000000 0.000000 0.000000 10.000000 
planeAlignerCenter 0.000000 0.000000 0.000000 0.000000 0.000000 0.000000 10.000000 
Rear_Toe1_01 0.000000 0.000000 0.000000 0.000000 0.000000 0.000000 10.000000 
Rear_Toe2_01 0.000000 0.000000 0.000000 0.000000 0.000000 0.000000 10.000000 
Rear_Toe3_01 0.000000 0.000000 0.000000 0.000000 0.000000 0.000000 10.000000 
planeLockWeightCenter 0.000000 0.000000 0.000000 0.000000 0.000000 0.000000 10.000000 
Rear_Toe1_02 0.000000 0.000000 0.000000 0.000000 0.000000 0.000000 10.000000 
Rear_Toe1_03 0.000000 0.000000 0.000000 0.000000 0.000000 0.000000 10.000000 
Rear_Toe2_02 0.000000 0.000000 0.000000 0.000000 0.000000 0.000000 10.000000 
Rear_Toe2_03 0.000000 0.000000 0.000000 0.000000 0.000000 0.000000 10.000000 
Rear_Toe3_02 0.000000 0.000000 0.000000 0.000000 0.000000 0.000000 10.000000 
Rear_Toe3_03 0.000000 0.000000 0.000000 0.000000 0.000000 0.000000 10.000000 
Back_Bone 0.000000 0.000000 0.000000 0.000000 0.000000 0.000000 10.000000 
Head 0.000000 0.000000 0.000000 0.000000 0.000000 0.000000 10.000000 
Motor_Bone 0.000000 0.000000 0.000000 0.000000 0.000000 0.000000 10.000000 
Ping_Mechanism 0.000000 0.000000 0.000000 0.000000 0.000000 0.000000 10.000000 
BN_LookIK 0.000000 0.000000 0.000000 0.000000 0.000000 0.000000 10.000000 
bottomMouth 0.000000 0.000000 0.000000 0.000000 0.000000 0.000000 10.000000 
L_Mouth01 0.000000 0.000000 0.000000 0.000000 0.000000 0.000000 10.000000 
L_mouthFront 0.000000 0.000000 0.000000 0.000000 0.000000 0.000000 10.000000 
mouthGun 0.000000 0.000000 0.000000 0.000000 0.000000 0.000000 10.000000 
R_Mouth01 0.000000 0.000000 0.000000 0.000000 0.000000 0.000000 10.000000 
R_mouthFront 0.000000 0.000000 0.000000 0.000000 0.000000 0.000000 10.000000 
TopMouth 0.000000 0.000000 0.000000 0.000000 0.000000 0.000000 10.000000 
weapon_bone 0.000000 0.000000 0.000000 0.000000 0.000000 0.000000 10.000000 
#Beginning of Data. Separated by tabs
#Fr	Tx	Ty	Tz	Rx	Ry	Rz	SF
[Pinger_Root]
157 0.000000 0.000000 0.000000 -0.000075 -0.000000 -0.000020 0.000000
158 0.000000 0.000000 0.000000 -0.000075 -0.000000 -0.000020 0.000000
159 0.000000 0.000000 0.000000 -0.000075 -0.000000 -0.000020 0.000000
[Pelvis]
157 72.607155 916.536438 4426.401367 -99.838333 -85.742188 92.218773 4520.877930
158 72.449493 916.536438 4428.368652 -100.006660 -85.814041 92.387268 4522.801758
159 72.405167 916.536438 4429.141602 -100.180450 -85.885437 92.561249 4523.558105
[L_Hip]
157 5.766392 125.831482 872.656799 160.158691 -45.484905 122.312202 881.701050
158 5.766392 125.831482 872.656799 160.158691 -45.484905 122.312202 881.701050
159 5.766392 125.831482 872.656799 160.158691 -45.484905 122.312202 881.701050
[R_Hip]
157 5.765438 125.836372 -872.654907 38.087841 49.812687 125.703735 881.699829
158 5.765438 125.836372 -872.654907 38.087841 49.812698 125.703735 881.699829
159 5.765438 125.836372 -872.654907 38.087841 49.812687 125.703735 881.699829
[Rear_Leg01]
157 -192.298416 -925.602966 -0.001907 169.679565 1.954602 -159.898010 945.367432
158 -192.298416 -925.602966 -0.001907 169.679916 1.956153 -159.834381 945.367432
159 -192.298416 -925.602966 -0.001907 169.680267 1.957704 -159.770752 945.367432
[Spine1]
157 290.604584 5.007505 0.000477 7.265322 -0.619416 19.035444 290.647736
158 290.604584 5.007505 0.000477 7.265351 -0.619432 19.108433 290.647736
159 290.604584 5.007505 0.000477 7.265378 -0.619448 19.181402 290.647736
[L_Leg01]
157 761.932007 -0.002384 -0.069261 22.632462 -15.822608 -8.591943 761.932068
158 761.932007 -0.002384 -0.069261 22.668070 -15.797871 -8.680890 761.932068
159 761.932007 -0.002384 -0.069261 22.703627 -15.773079 -8.769810 761.932068
[L_Leg02]
157 1441.140503 -0.000954 -0.000715 2.652473 -0.183841 -129.472427 1441.140503
158 1441.140503 -0.000954 -0.000715 2.635278 -0.182771 -129.314362 1441.140503
159 1441.140503 -0.000954 -0.000715 2.628974 -0.183373 -129.255295 1441.140503
[L_Leg03]
157 1686.963989 -0.000715 -0.000954 -0.029929 0.014752 118.263153 1686.963989
158 1686.963989 -0.000715 -0.000954 -0.029930 0.014748 118.250740 1686.963989
159 1686.963989 -0.000715 -0.000954 -0.029932 0.014745 118.238319 1686.963989
[L_Foot]
157 3041.570068 -30.715107 11.297464 1.888367 13.037684 55.593155 3041.746094
158 3041.570068 -30.715107 11.297464 1.895245 13.042761 55.580055 3041.746094
159 3041.570068 -30.715107 11.297464 1.902121 13.047838 55.566948 3041.746094
[L_Toe1_01]
157 -188.216690 -224.732346 -21.137953 93.719086 -6.862507 -171.970444 293.899567
158 -188.216690 -224.732346 -21.137953 93.719086 -6.862507 -171.970444 293.899567
159 -188.216690 -224.732346 -21.137953 93.719086 -6.862507 -171.970444 293.899567
[L_Toe2_01]
157 200.746536 -219.926590 148.838394 -90.025635 -26.321054 -52.670876 332.896027
158 200.746536 -219.926590 148.838394 -90.025475 -26.320124 -52.671555 332.896027
159 200.746536 -219.926590 148.838394 -90.025314 -26.319191 -52.672234 332.896027
[L_Toe3_01]
157 188.832520 -219.859131 -191.078659 -99.788055 13.839005 -67.673027 347.140900
158 188.832520 -219.859131 -191.078659 -99.788055 13.839008 -67.673027 347.140900
159 188.832520 -219.859131 -191.078659 -99.788055 13.839008 -67.673027 347.140900
[planeAlignerLeft]
157 0.812531 -811.448792 -0.314951 0.000000 -90.000000 -90.001900 811.449280
158 0.812531 -811.448792 -0.314951 0.000000 -90.000000 -90.001900 811.449280
159 0.812531 -811.448792 -0.314951 0.000000 -90.000000 -90.001900 811.449280
[L_Toe1_02]
157 413.761139 0.000477 0.000000 0.000203 -25.410625 -0.000182 413.761139
158 413.761139 0.000477 0.000000 0.000203 -25.410625 -0.000182 413.761139
159 413.761139 0.000477 0.000000 0.000203 -25.410625 -0.000182 413.761139
[L_Toe1_03]
157 464.317322 0.000358 -0.000089 0.003734 53.357754 0.003734 464.317322
158 464.317322 0.000358 -0.000089 0.003734 53.357887 0.003734 464.317322
159 464.317322 0.000358 -0.000089 0.003734 53.358021 0.003734 464.317322
[L_Toe2_02]
157 342.235809 -0.000477 0.000238 0.001188 -72.402016 0.001188 342.235809
158 342.235809 -0.000477 0.000238 0.001188 -72.402016 0.001188 342.235809
159 342.235809 -0.000477 0.000238 0.001188 -72.402016 0.001188 342.235809
[L_Toe2_03]
157 420.210846 -0.000715 0.000000 0.029159 85.386406 0.029159 420.210846
158 420.210846 -0.000715 0.000000 0.029152 85.385399 0.029152 420.210846
159 420.210846 -0.000715 0.000000 0.029145 85.384247 0.029145 420.210846
[L_Toe3_02]
157 329.270111 0.000954 0.000000 0.001178 -80.480331 0.001178 329.270111
158 329.270111 0.000954 0.000000 0.001178 -80.480331 0.001178 329.270111
159 329.270111 0.000954 0.000000 0.001178 -80.480331 0.001178 329.270111
[L_Toe3_03]
157 439.137451 -0.001907 0.000954 -179.995956 78.605698 -179.992447 439.137451
158 439.137451 -0.001907 0.000954 -179.995956 78.605721 -179.992447 439.137451
159 439.137451 -0.001907 0.000954 -179.995956 78.605721 -179.992447 439.137451
[planeLockWeightLeft]
157 -0.000954 0.000238 -0.000305 -0.011826 -0.004376 0.005620 0.001029
158 -0.000954 0.000238 -0.000305 -0.011826 -0.004376 0.005620 0.001029
159 -0.000954 0.000238 -0.000305 -0.011826 -0.004376 0.005620 0.001029
[R_Leg01]
157 761.455627 -0.001907 -0.000358 120.249031 -8.530973 35.351055 761.455688
158 761.455627 -0.001907 -0.000358 120.231071 -8.462750 35.405426 761.455688
159 761.455627 -0.001907 -0.000358 120.213158 -8.394507 35.459759 761.455688
[R_Leg02]
157 1441.140625 0.000000 -0.000238 -1.361550 -0.207474 -119.492371 1441.140625
158 1441.140625 0.000000 -0.000238 -1.356520 -0.206710 -119.361748 1441.140625
159 1441.140625 0.000000 -0.000238 -1.351487 -0.205959 -119.231117 1441.140625
[R_Leg03]
157 1686.963989 0.000954 0.001431 0.076965 -0.043153 131.629242 1686.963989
158 1686.963989 0.000954 0.001431 0.076662 -0.043265 131.579300 1686.963989
159 1686.963989 0.000954 0.001431 0.076359 -0.043376 131.529388 1686.963989
[R_Foot]
157 3041.560059 -30.531288 -11.204481 -0.497188 -24.667328 55.551632 3041.734131
158 3041.560059 -30.531288 -11.204481 -0.503717 -24.670734 55.510159 3041.734131
159 3041.560059 -30.531288 -11.204481 -0.510247 -24.674150 55.468704 3041.734131
[planeAlignerRight]
157 -0.635147 -812.270569 -0.364304 0.000000 -89.960434 -90.005180 812.270874
158 -0.635147 -812.270569 -0.364304 0.000000 -89.960434 -90.005180 812.270874
159 -0.635147 -812.270569 -0.364304 0.000000 -89.960434 -90.005180 812.270874
[R_Toe1_01]
157 -188.383347 -224.864899 21.052242 76.763535 -0.414595 -172.728699 294.101532
158 -188.383347 -224.864899 21.052242 76.763535 -0.414595 -172.728699 294.101532
159 -188.383347 -224.864899 21.052242 76.763535 -0.414595 -172.728699 294.101532
[R_Toe2_01]
157 200.637817 -220.002121 -148.787384 -91.743256 32.873833 -59.182163 332.857574
158 200.637817 -220.002121 -148.787384 -91.743256 32.873833 -59.182163 332.857574
159 200.637817 -220.002121 -148.787384 -91.743256 32.873833 -59.182163 332.857574
[R_Toe3_01]
157 188.606735 -220.092957 191.126343 -73.225998 -8.456855 -73.756157 347.192566
158 188.606735 -220.092957 191.126343 -73.225998 -8.456855 -73.756157 347.192566
159 188.606735 -220.092957 191.126343 -73.225998 -8.456855 -73.756157 347.192566
[planeLockWeightRight]
157 -0.000477 0.000000 0.000000 -0.011823 -0.004379 -0.000027 0.000477
158 -0.000477 0.000000 0.000000 -0.011823 -0.004379 -0.000027 0.000477
159 -0.000477 0.000000 0.000000 -0.011823 -0.004379 -0.000027 0.000477
[R_Toe1_02]
157 413.762085 0.000477 -0.000119 0.000006 -25.434675 -0.000005 413.762085
158 413.762085 0.000477 -0.000119 0.000006 -25.434675 -0.000005 413.762085
159 413.762085 0.000477 -0.000119 0.000006 -25.434675 -0.000005 413.762085
[R_Toe1_03]
157 464.317810 0.000000 0.001088 0.006626 69.594757 0.006626 464.317810
158 464.317810 0.000000 0.001088 0.006626 69.594627 0.006626 464.317810
159 464.317810 0.000000 0.001088 0.006626 69.594475 0.006626 464.317810
[R_Toe2_02]
157 342.234741 -0.000954 0.000238 0.001197 -67.219551 0.001197 342.234741
158 342.234741 -0.000954 0.000238 0.001197 -67.219719 0.001197 342.234741
159 342.234741 -0.000954 0.000238 0.001197 -67.219879 0.001197 342.234741
[R_Toe2_03]
157 420.210846 0.000715 -0.000268 0.008232 73.607773 0.008232 420.210846
158 420.210846 0.000715 -0.000268 0.008233 73.608185 0.008233 420.210846
159 420.210846 0.000715 -0.000268 0.008233 73.608604 0.008233 420.210846
[R_Toe3_02]
157 329.270355 -0.000477 -0.000954 0.001184 -74.512985 0.001184 329.270355
158 329.270355 -0.000477 -0.000954 0.001184 -74.513512 0.001184 329.270355
159 329.270355 -0.000477 -0.000954 0.001184 -74.514130 0.001184 329.270355
[R_Toe3_03]
157 439.137939 0.000238 0.001431 -0.011583 83.297203 -0.008080 439.137939
158 439.137939 0.000238 0.001431 -0.011583 83.297531 -0.008080 439.137939
159 439.137939 0.000238 0.001431 -0.011584 83.297791 -0.008081 439.137939
[Rear_Leg02]
157 1162.777710 -0.029802 0.005960 0.643803 -2.914212 -123.897888 1162.777710
158 1162.777710 -0.029802 0.005960 0.642672 -2.914502 -123.872231 1162.777710
159 1162.777710 -0.029802 0.005960 0.641541 -2.914791 -123.846565 1162.777710
[Rear_Leg03]
157 607.192505 -0.013351 -0.073195 0.007777 -0.002950 64.567986 607.192505
158 607.192505 -0.013351 -0.073195 0.007646 -0.002867 64.557365 607.192505
159 607.192505 -0.013351 -0.073195 0.007516 -0.002783 64.546761 607.192505
[Rear_Leg04]
157 995.874512 -0.020504 -0.011921 -0.040583 -0.014986 58.737934 995.874573
158 995.874512 -0.020504 -0.011921 -0.040580 -0.014993 58.715981 995.874573
159 995.874512 -0.020504 -0.011921 -0.040577 -0.015001 58.694016 995.874573
[Rear_Foot]
157 3096.176270 -0.067472 -0.041425 -144.153503 85.716866 48.611538 3096.176270
158 3096.176270 -0.067472 -0.041425 -144.119232 85.720161 48.644657 3096.176270
159 3096.176270 -0.067472 -0.041425 -144.084732 85.723412 48.677898 3096.176270
[planeAlignerCenter]
157 0.350077 0.966311 -838.790894 0.000009 0.000003 -179.999985 838.791565
158 0.350077 0.966311 -838.790894 0.000009 0.000003 -179.999985 838.791565
159 0.350077 0.966311 -838.790894 0.000009 0.000003 -179.999985 838.791565
[Rear_Toe1_01]
157 0.653352 83.966492 -371.173737 0.297857 41.898415 90.429764 380.553192
158 0.653352 83.966492 -371.173737 0.296880 41.899986 90.428123 380.553192
159 0.653352 83.966492 -371.173737 0.295908 41.901554 90.426460 380.553192
[Rear_Toe2_01]
157 178.200760 -294.826019 -362.060547 -7.196267 34.406261 -66.271294 499.765686
158 178.200760 -294.826019 -362.060547 -7.196267 34.406261 -66.271294 499.765686
159 178.200760 -294.826019 -362.060547 -7.196267 34.406261 -66.271294 499.765686
[Rear_Toe3_01]
157 -153.359680 -308.780914 -362.060852 3.286755 33.506298 -112.551674 499.952881
158 -153.359680 -308.780914 -362.060852 3.287018 33.507462 -112.550606 499.952881
159 -153.359680 -308.780914 -362.060852 3.287289 33.508636 -112.549530 499.952881
[planeLockWeightCenter]
157 -0.000062 0.000238 0.000000 -0.011814 -0.004373 -0.000015 0.000246
158 -0.000062 0.000238 0.000000 -0.011814 -0.004373 -0.000015 0.000246
159 -0.000062 0.000238 0.000000 -0.011814 -0.004373 -0.000015 0.000246
[Rear_Toe1_02]
157 379.707825 0.194073 0.000477 -0.000242 -31.681528 0.006934 379.707855
158 379.707825 0.194073 0.000477 -0.000242 -31.681047 0.006934 379.707855
159 379.707825 0.194073 0.000477 -0.000242 -31.680573 0.006934 379.707855
[Rear_Toe1_03]
157 500.129700 0.165701 0.000119 -0.000103 51.902481 0.007295 500.129761
158 500.129700 0.165701 0.000119 -0.000103 51.902481 0.007295 500.129761
159 500.129700 0.165701 0.000119 -0.000103 51.902481 0.007295 500.129761
[Rear_Toe2_02]
157 340.494507 0.000238 -0.000954 0.001192 -69.854523 0.001192 340.494507
158 340.494507 0.000238 -0.000954 0.001192 -69.854523 0.001192 340.494507
159 340.494507 0.000238 -0.000954 0.001192 -69.854523 0.001192 340.494507
[Rear_Toe2_03]
157 433.103577 0.000000 0.000238 0.006696 69.810326 0.006696 433.103546
158 433.103577 0.000000 0.000238 0.006696 69.810326 0.006696 433.103546
159 433.103577 0.000000 0.000238 0.006696 69.810326 0.006696 433.103546
[Rear_Toe3_02]
157 340.494141 -0.000358 -0.000477 0.008288 -67.274704 -0.009460 340.494171
158 340.494141 -0.000358 -0.000477 0.008288 -67.274704 -0.009460 340.494171
159 340.494141 -0.000358 -0.000477 0.008288 -67.274704 -0.009460 340.494171
[Rear_Toe3_03]
157 433.103577 0.001431 -0.000238 -0.000972 65.957802 -0.004547 433.103546
158 433.103577 0.001431 -0.000238 -0.000972 65.957901 -0.004547 433.103546
159 433.103577 0.001431 -0.000238 -0.000972 65.958031 -0.004547 433.103546
[Back_Bone]
157 1312.175781 -701.934692 0.000954 1.476643 -0.011395 -85.242035 1488.125488
158 1312.175781 -701.934692 0.000954 1.476698 -0.008307 -85.373253 1488.125488
159 1312.175781 -701.934692 0.000954 1.476740 -0.006875 -85.406921 1488.125488
[Head]
157 1406.159424 809.709290 0.001431 -0.001866 -1.475623 7.961195 1622.625488
158 1406.159424 809.709290 0.001431 -0.001715 -1.474982 7.183205 1622.625488
159 1406.159424 809.709290 0.001431 -0.001247 -1.475109 7.300176 1622.625488
[Motor_Bone]
157 1158.364380 -417.834747 0.000477 -0.000105 0.000046 -105.985291 1231.419434
158 1158.364380 -417.834747 0.000477 -0.000105 0.000046 -105.985291 1231.419434
159 1158.364380 -417.834747 0.000477 -0.000105 0.000046 -105.985291 1231.419434
[Ping_Mechanism]
157 1235.188110 -442.618622 -0.094824 0.000103 -0.000053 82.120995 1312.097900
158 1234.982422 -442.497284 -0.126828 0.000103 -0.000053 82.120995 1311.863281
159 1234.776733 -442.375946 -0.158832 0.000103 -0.000053 82.120995 1311.628784
[BN_LookIK]
157 193.241119 1380.371704 -0.002861 0.000000 89.965736 -31.038179 1393.832153
158 193.241119 1380.371704 -0.002861 0.000000 89.965736 -31.038179 1393.832153
159 193.241119 1380.371704 -0.002861 0.000000 89.965736 -31.038179 1393.832153
[bottomMouth]
157 -435.092926 615.759399 -0.000954 -0.000022 0.000016 73.527184 753.966492
158 -435.092926 615.759399 -0.000954 -0.000022 0.000016 73.527184 753.966492
159 -435.092926 615.759399 -0.000954 -0.000022 0.000016 73.527184 753.966492
[L_Mouth01]
157 554.440979 7.658243 838.222046 150.204178 23.759130 109.605339 1005.027161
158 554.440979 7.658243 838.222046 150.204178 23.759130 109.605339 1005.027161
159 554.440979 7.658243 838.222046 150.204178 23.759130 109.605339 1005.027161
[L_mouthFront]
157 551.629089 934.514771 339.150421 0.000081 2.804060 79.119301 1136.941284
158 551.629089 934.514771 339.150421 0.000081 2.804060 79.119301 1136.941284
159 551.629089 934.514771 339.150421 0.000081 2.804060 79.119301 1136.941284
[mouthGun]
157 55.332661 1627.420898 0.000000 0.000023 0.000009 -11.038128 1628.361328
158 55.332661 1627.420898 0.000000 0.000023 0.000009 -11.038128 1628.361328
159 55.332661 1627.420898 0.000000 0.000023 0.000009 -11.038128 1628.361328
[R_Mouth01]
157 554.442383 7.659197 -838.223938 29.795891 -23.759109 109.605331 1005.029541
158 554.442383 7.659197 -838.223938 29.795891 -23.759109 109.605331 1005.029541
159 554.442383 7.659197 -838.223938 29.795891 -23.759109 109.605331 1005.029541
[R_mouthFront]
157 551.629089 934.514282 -339.151367 0.000029 -2.803930 79.119133 1136.941162
158 551.629089 934.514282 -339.151367 0.000029 -2.803930 79.119133 1136.941162
159 551.629089 934.514282 -339.151367 0.000029 -2.803930 79.119133 1136.941162
[TopMouth]
157 461.269867 -56.106091 -0.008583 -0.000059 -0.000268 92.025169 464.669525
158 461.269867 -56.106091 -0.008583 -0.000059 -0.000268 92.025169 464.669525
159 461.269867 -56.106091 -0.008583 -0.000059 -0.000268 92.025169 464.669525
[weapon_bone]
157 -987.239868 1448.372803 0.001431 0.000000 89.965736 -31.038221 1752.833740
158 -987.239868 1448.372803 0.001431 0.000000 89.965736 -31.038221 1752.833740
159 -987.239868 1448.372803 0.001431 0.000000 89.965736 -31.038221 1752.833740
